<?xml version="1.0" encoding="utf-8"?>
<!-- Generator: Adobe Illustrator 15.1.0, SVG Export Plug-In . SVG Version: 6.00 Build 0)  -->
<!DOCTYPE svg PUBLIC "-//W3C//DTD SVG 1.1//EN" "http://www.w3.org/Graphics/SVG/1.1/DTD/svg11.dtd">
<svg version="1.1" id="Layer_1" xmlns="http://www.w3.org/2000/svg" xmlns:xlink="http://www.w3.org/1999/xlink" x="0px" y="0px"
	 width="283.464px" height="154.216px" viewBox="0 0 283.464 154.216" enable-background="new 0 0 283.464 154.216"
	 xml:space="preserve">
<g>
	<rect x="237.29" y="39.091" fill="#FFFFFF" width="41.16" height="6.129"/>
</g>
<path fill="#FFFFFF" d="M0.435,25.523C0.302,22.178,0.16,18.834,0,15.49c1.358,0.104,2.747,0.195,4.157,0.274
	c1.415,0.077,2.796,0.114,4.156,0.114c1.361,0,2.745-0.062,4.155-0.194c1.414-0.128,2.798-0.195,4.157-0.195
	c2.247,0,4.364,0.168,6.352,0.509c1.984,0.338,3.737,0.941,5.253,1.802c1.517,0.864,2.718,2.026,3.608,3.488
	c0.888,1.467,1.334,3.295,1.334,5.49c0,3.87-1.213,6.901-3.648,9.094c-2.43,2.197-5.605,3.742-9.525,4.627v0.16
	c4.65,0.208,8.323,1.332,11.015,3.371c2.696,2.035,4.04,5.306,4.04,9.8c0,2.929-0.605,5.387-1.802,7.37
	c-1.205,1.988-2.773,3.596-4.705,4.822c-1.937,1.23-4.065,2.094-6.392,2.588c-2.328,0.498-4.64,0.746-6.942,0.746
	c-1.253,0-2.519-0.025-3.803-0.076C10.129,69.228,8.862,69.2,7.605,69.2c-1.25,0-2.52,0-3.8,0c-1.282,0-2.548,0.051-3.805,0.158
	c0.16-3.344,0.302-6.679,0.435-9.998c0.131-3.317,0.196-6.703,0.196-10.154V35.72C0.631,32.271,0.566,28.87,0.435,25.523z
	 M16.746,39.013c1.802-0.365,3.41-0.981,4.822-1.842c1.409-0.865,2.546-2.014,3.409-3.452c0.865-1.438,1.294-3.254,1.294-5.448
	c0-2.144-0.391-3.855-1.178-5.138c-0.782-1.279-1.775-2.272-2.976-2.979c-1.206-0.706-2.562-1.176-4.08-1.413
	c-1.519-0.233-3.032-0.351-4.549-0.351c-1.357,0-2.51,0.039-3.451,0.118c-0.939,0.08-1.777,0.171-2.507,0.275
	c-0.107,2.507-0.209,4.994-0.315,7.449c-0.107,2.461-0.154,4.942-0.154,7.45v5.88h4.232C13.125,39.561,14.941,39.378,16.746,39.013z
	 M7.216,58.38c0.106,2.615,0.208,5.256,0.315,7.922c0.99,0.105,2.166,0.197,3.527,0.271c1.359,0.081,2.746,0.12,4.155,0.12
	c1.673,0,3.283-0.286,4.822-0.864c1.543-0.574,2.89-1.424,4.041-2.545c1.149-1.124,2.064-2.514,2.744-4.159
	c0.678-1.647,1.018-3.515,1.018-5.604c0-2.251-0.404-4.089-1.214-5.53c-0.812-1.437-1.975-2.56-3.49-3.37
	c-1.517-0.809-3.332-1.373-5.449-1.686c-2.117-0.314-4.481-0.475-7.099-0.475H7.062v8C7.062,53.124,7.108,55.767,7.216,58.38z"/>
<path fill="#FFFFFF" d="M84.14,19.565c-1.359,0-2.782,0.012-4.273,0.038c-1.489,0.029-2.979,0.081-4.47,0.16
	c-1.492,0.077-2.93,0.169-4.311,0.272c-1.39,0.107-2.63,0.237-3.728,0.396c0.264-0.944,0.394-1.778,0.394-2.513
	c0-0.574-0.13-1.382-0.394-2.428c3.448,0.104,6.822,0.195,10.116,0.274c3.293,0.077,6.665,0.114,10.117,0.114
	c3.447,0,6.822-0.038,10.115-0.114c3.293-0.08,6.665-0.17,10.114-0.274c-0.264,1.046-0.394,1.88-0.394,2.509
	c0,0.68,0.13,1.488,0.394,2.432c-1.099-0.159-2.339-0.289-3.725-0.396c-1.386-0.103-2.825-0.195-4.314-0.272
	c-1.487-0.079-2.978-0.13-4.47-0.16c-1.489-0.026-2.912-0.038-4.273-0.038c-0.154,5.386-0.236,10.795-0.236,16.232v13.489
	c0,3.449,0.066,6.846,0.199,10.195c0.13,3.345,0.272,6.637,0.43,9.877c-1.203-0.107-2.482-0.158-3.84-0.158
	c-1.36,0-2.643,0.051-3.846,0.158c0.16-3.24,0.303-6.532,0.434-9.877c0.129-3.35,0.194-6.746,0.194-10.195V35.797
	C84.375,30.36,84.297,24.951,84.14,19.565z"/>
<path fill="#FFFFFF" d="M165.69,23.801c-0.052-4.026-0.184-6.797-0.394-8.312c0.575,0.104,1.126,0.195,1.649,0.274
	c0.521,0.077,1.046,0.114,1.568,0.114c0.677,0,1.461-0.129,2.352-0.389c-0.153,1.83-0.312,4.013-0.469,6.545
	c-0.158,2.537-0.292,5.255-0.392,8.156c-0.105,2.901-0.212,5.882-0.313,8.941c-0.105,3.059-0.184,6.022-0.239,8.897
	c-0.052,3.503-0.584,6.64-1.604,9.41c-1.021,2.776-2.471,5.123-4.356,7.056c-1.878,1.938-4.19,3.4-6.936,4.395
	c-2.746,0.99-5.896,1.486-9.452,1.486c-7.838,0-13.536-1.775-17.091-5.332c-3.558-3.55-5.336-9.174-5.336-16.857
	c0-2.457,0.064-4.639,0.197-6.548c0.129-1.909,0.195-3.854,0.195-5.842c0-4.39-0.051-8.286-0.154-11.683
	c-0.109-3.4-0.211-6.273-0.316-8.624c0.629,0.104,1.306,0.195,2.04,0.274c0.733,0.077,1.413,0.114,2.04,0.114
	c0.572,0,1.135-0.038,1.686-0.114c0.547-0.08,1.108-0.17,1.686-0.274c-0.104,1.15-0.209,2.652-0.313,4.507
	c-0.107,1.857-0.209,3.96-0.313,6.313c-0.106,2.353-0.185,4.889-0.238,7.607c-0.05,2.718-0.075,5.539-0.075,8.465
	c0,1.78,0.025,3.624,0.075,5.531c0.054,1.908,0.238,3.762,0.551,5.568c0.313,1.801,0.824,3.528,1.53,5.172
	c0.705,1.648,1.712,3.088,3.017,4.315c1.308,1.228,2.954,2.195,4.94,2.901c1.988,0.703,4.443,1.058,7.371,1.058
	c2.874,0,5.293-0.419,7.255-1.258c1.958-0.831,3.57-1.931,4.819-3.288c1.257-1.361,2.236-2.928,2.943-4.705
	c0.706-1.776,1.216-3.637,1.529-5.57c0.312-1.93,0.495-3.866,0.547-5.801c0.05-1.934,0.08-3.709,0.08-5.332
	C165.77,33.55,165.74,27.828,165.69,23.801z"/>
<path fill="#FFFFFF" d="M193.723,62.025c0.706,0.973,1.568,1.845,2.587,2.63c1.021,0.782,2.21,1.422,3.569,1.918
	c1.359,0.5,2.877,0.747,4.547,0.747c1.727,0,3.28-0.298,4.668-0.902c1.383-0.601,2.563-1.409,3.526-2.433
	c0.967-1.017,1.714-2.221,2.237-3.604c0.522-1.386,0.782-2.861,0.782-4.431c0-2.404-0.616-4.313-1.846-5.725
	c-1.226-1.412-2.755-2.586-4.584-3.529c-1.832-0.94-3.805-1.803-5.919-2.586c-2.119-0.786-4.091-1.766-5.923-2.939
	c-1.828-1.178-3.356-2.679-4.588-4.51c-1.228-1.829-1.839-4.287-1.839-7.371c0-2.195,0.389-4.196,1.178-5.998
	c0.78-1.806,1.919-3.36,3.407-4.667c1.489-1.306,3.281-2.328,5.373-3.06c2.09-0.733,4.442-1.097,7.058-1.097
	c2.507,0,4.677,0.303,6.507,0.899c1.83,0.601,3.529,1.534,5.096,2.784c-0.469,0.893-0.86,1.831-1.176,2.825
	c-0.313,0.995-0.627,2.248-0.938,3.763h-0.944c-0.26-0.73-0.612-1.526-1.057-2.393c-0.443-0.861-1.046-1.657-1.807-2.39
	c-0.757-0.731-1.658-1.347-2.704-1.844c-1.046-0.496-2.299-0.744-3.762-0.744c-1.468,0-2.813,0.233-4.039,0.704
	c-1.228,0.475-2.3,1.141-3.214,2c-0.916,0.863-1.62,1.897-2.115,3.097c-0.502,1.206-0.748,2.512-0.748,3.924
	c0,2.455,0.614,4.391,1.842,5.801c1.227,1.412,2.759,2.602,4.59,3.568c1.828,0.969,3.799,1.83,5.921,2.588
	c2.113,0.758,4.087,1.686,5.917,2.783c1.83,1.1,3.358,2.508,4.59,4.232c1.224,1.73,1.839,4.027,1.839,6.904
	c0,2.404-0.43,4.679-1.29,6.822c-0.864,2.143-2.12,4.01-3.767,5.606c-1.643,1.595-3.656,2.819-6.038,3.685
	c-2.377,0.862-5.085,1.291-8.112,1.291c-3.246,0-5.871-0.429-7.883-1.291c-2.015-0.865-3.7-1.843-5.062-2.94
	c0.476-1.201,0.802-2.288,0.983-3.253c0.182-0.969,0.354-2.209,0.51-3.729h0.942C192.457,60.104,193.016,61.063,193.723,62.025z"/>
<path fill="#FFFFFF" d="M0.43,94.929C0.296,91.583,0.155,88.237,0,84.895c1.357,0.102,2.744,0.19,4.156,0.271
	c1.41,0.08,2.796,0.118,4.153,0.118c1.362,0,2.745-0.066,4.156-0.198c1.414-0.13,2.797-0.19,4.157-0.19
	c2.247,0,4.364,0.169,6.352,0.506c1.986,0.342,3.737,0.94,5.254,1.807c1.515,0.86,2.716,2.024,3.606,3.485
	c0.888,1.463,1.333,3.294,1.333,5.489c0,3.87-1.217,6.902-3.646,9.098c-2.431,2.193-5.607,3.736-9.529,4.625v0.157
	c4.653,0.208,8.322,1.334,11.021,3.374c2.688,2.037,4.039,5.305,4.039,9.8c0,2.931-0.603,5.383-1.809,7.371
	c-1.2,1.986-2.771,3.594-4.702,4.823c-1.937,1.228-4.067,2.09-6.393,2.587c-2.325,0.497-4.637,0.744-6.937,0.744
	c-1.256,0-2.522-0.026-3.804-0.074c-1.283-0.056-2.547-0.08-3.803-0.08c-1.257,0-2.52,0-3.806,0c-1.279,0-2.546,0.048-3.799,0.154
	c0.155-3.344,0.296-6.676,0.43-9.995c0.128-3.324,0.197-6.706,0.197-10.157v-13.489C0.626,101.669,0.558,98.273,0.43,94.929z
	 M16.739,108.415c1.801-0.365,3.412-0.979,4.822-1.843c1.413-0.862,2.548-2.01,3.415-3.449c0.858-1.438,1.293-3.253,1.293-5.45
	c0-2.142-0.394-3.857-1.179-5.135c-0.782-1.283-1.776-2.277-2.979-2.98c-1.204-0.706-2.562-1.178-4.082-1.413
	c-1.512-0.233-3.029-0.352-4.545-0.352c-1.359,0-2.506,0.041-3.451,0.118c-0.939,0.078-1.777,0.164-2.508,0.272
	c-0.104,2.509-0.209,4.994-0.314,7.449c-0.104,2.457-0.156,4.94-0.156,7.451v5.88h4.235
	C13.119,108.964,14.936,108.78,16.739,108.415z M7.211,127.782c0.105,2.617,0.21,5.258,0.314,7.922
	c0.991,0.104,2.169,0.195,3.528,0.272c1.359,0.08,2.744,0.117,4.158,0.117c1.669,0,3.278-0.285,4.823-0.86
	c1.54-0.575,2.886-1.426,4.037-2.55c1.152-1.124,2.065-2.509,2.743-4.153c0.683-1.649,1.022-3.519,1.022-5.606
	c0-2.249-0.405-4.093-1.217-5.527c-0.809-1.439-1.974-2.565-3.488-3.373c-1.519-0.811-3.333-1.373-5.449-1.69
	c-2.119-0.313-4.484-0.469-7.1-0.469H7.056v8C7.056,122.529,7.108,125.172,7.211,127.782z"/>
<path fill="#FFFFFF" d="M109.894,136.917c-1.017,0.497-2.249,0.94-3.686,1.338c-1.435,0.389-3.043,0.743-4.823,1.055
	c-1.779,0.317-3.633,0.471-5.564,0.471c-4.133,0-7.946-0.588-11.449-1.764c-3.506-1.18-6.524-2.967-9.057-5.37
	c-2.535-2.405-4.523-5.346-5.959-8.823c-1.438-3.478-2.157-7.437-2.157-11.881c0-4.441,0.719-8.4,2.157-11.877
	c1.436-3.479,3.447-6.417,6.036-8.821c2.589-2.405,5.687-4.236,9.294-5.491c3.606-1.256,7.58-1.883,11.919-1.883
	c3.451,0,6.597,0.356,9.446,1.059c2.852,0.705,5.371,1.559,7.569,2.553c-0.421,0.732-0.759,1.723-1.021,2.978
	c-0.261,1.254-0.469,2.3-0.629,3.136l-0.467,0.158c-0.526-0.629-1.255-1.336-2.199-2.118c-0.938-0.786-2.035-1.541-3.289-2.271
	c-1.26-0.734-2.669-1.351-4.238-1.845c-1.567-0.497-3.293-0.746-5.173-0.746c-3.087,0-5.947,0.497-8.588,1.493
	c-2.642,0.992-4.938,2.522-6.9,4.586c-1.96,2.063-3.489,4.677-4.588,7.84c-1.098,3.162-1.645,6.913-1.645,11.251
	c0,4.337,0.547,8.093,1.645,11.254c1.099,3.16,2.628,5.776,4.588,7.843c1.962,2.063,4.259,3.594,6.9,4.586
	c2.641,0.996,5.501,1.488,8.588,1.488c1.88,0,3.618-0.233,5.214-0.704c1.594-0.472,3.057-1.031,4.39-1.686
	c1.333-0.652,2.534-1.359,3.608-2.12c1.07-0.757,1.971-1.422,2.706-1.997l0.312,0.313l-0.703,4.627
	C111.66,135.964,110.915,136.424,109.894,136.917z"/>
<path fill="#FFFFFF" d="M162.904,95.045c-0.13-3.319-0.272-6.703-0.433-10.15c0.679,0.102,1.336,0.19,1.962,0.271
	c0.625,0.08,1.252,0.118,1.878,0.118c0.629,0,1.258-0.038,1.887-0.118c0.625-0.08,1.279-0.169,1.96-0.271
	c-0.159,3.447-0.303,6.831-0.432,10.15c-0.132,3.319-0.194,6.706-0.194,10.157v13.488c0,3.447,0.063,6.845,0.194,10.189
	c0.129,3.348,0.272,6.637,0.432,9.881c-1.206-0.106-2.485-0.154-3.847-0.154c-1.354,0-2.636,0.048-3.84,0.154
	c0.16-3.244,0.303-6.533,0.433-9.881c0.129-3.345,0.196-6.742,0.196-10.189v-7.06c-2.824-0.052-5.556-0.093-8.194-0.117
	c-2.641-0.03-5.37-0.041-8.197-0.041c-2.822,0-5.554,0.011-8.192,0.041c-2.639,0.024-5.372,0.065-8.194,0.117v7.06
	c0,3.447,0.064,6.845,0.196,10.189c0.128,3.348,0.272,6.637,0.431,9.881c-1.202-0.106-2.481-0.154-3.845-0.154
	c-1.357,0-2.637,0.048-3.838,0.154c0.154-3.244,0.297-6.533,0.43-9.881c0.129-3.345,0.196-6.742,0.196-10.189v-13.488
	c0-3.451-0.067-6.838-0.196-10.157c-0.133-3.319-0.275-6.703-0.43-10.15c0.678,0.102,1.33,0.19,1.959,0.271
	c0.627,0.08,1.254,0.118,1.879,0.118c0.633,0,1.26-0.038,1.883-0.118c0.631-0.08,1.281-0.169,1.962-0.271
	c-0.158,3.447-0.303,6.831-0.431,10.15c-0.132,3.319-0.196,6.706-0.196,10.157v2.742c2.822,0.054,5.556,0.105,8.194,0.159
	c2.639,0.053,5.37,0.076,8.192,0.076c2.827,0,5.557-0.023,8.197-0.076c2.639-0.054,5.37-0.105,8.194-0.159v-2.742
	C163.1,101.751,163.033,98.364,162.904,95.045z"/>
<path fill="#FFFFFF" d="M228.181,138.761c-0.73-0.106-1.422-0.154-2.079-0.154c-0.652,0-1.344,0-2.074,0s-1.426,0-2.079,0
	c-0.654,0-1.346,0.048-2.078,0.154c-0.368-1.202-0.862-2.65-1.489-4.351c-0.627-1.698-1.32-3.478-2.077-5.333
	c-0.761-1.854-1.527-3.737-2.313-5.649c-0.784-1.903-1.521-3.722-2.197-5.445c-1.673-0.053-3.373-0.091-5.098-0.117
	c-1.727-0.03-3.447-0.041-5.176-0.041c-1.621,0-3.214,0.011-4.782,0.041c-1.569,0.026-3.164,0.064-4.785,0.117
	c-1.675,4.077-3.188,7.959-4.544,11.641c-1.359,3.688-2.384,6.736-3.058,9.138c-0.891-0.106-1.861-0.154-2.905-0.154
	c-1.043,0-2.012,0.048-2.902,0.154c4.236-9.148,8.363-18.241,12.392-27.288c4.026-9.044,8.074-18.241,12.153-27.603h1.489
	c1.256,3.036,2.617,6.314,4.08,9.842c1.463,3.531,2.95,7.099,4.467,10.705c1.518,3.604,3.032,7.188,4.551,10.74
	c1.518,3.556,2.941,6.861,4.272,9.92c1.334,3.06,2.533,5.791,3.609,8.196C226.625,135.677,227.5,137.507,228.181,138.761z
	 M193.445,114.375c1.357,0,2.771,0.028,4.236,0.078c1.461,0.054,2.872,0.08,4.23,0.08c1.466,0,2.929-0.016,4.392-0.041
	c1.465-0.028,2.928-0.067,4.392-0.117l-8.703-19.916L193.445,114.375z"/>
<path fill="#FFFFFF" d="M262.135,118.412c-6.796-7.289-13.593-14.544-20.389-21.76c-0.05,1.466-0.102,3.426-0.154,5.881
	c-0.054,2.459-0.079,5.802-0.079,10.04c0,1.098,0.011,2.457,0.043,4.075c0.021,1.621,0.048,3.319,0.073,5.094
	c0.026,1.778,0.067,3.583,0.117,5.413c0.056,1.831,0.107,3.529,0.159,5.101c0.05,1.566,0.104,2.938,0.156,4.114
	s0.104,1.973,0.155,2.391c-0.834-0.106-1.753-0.154-2.744-0.154c-1.044,0-2.013,0.048-2.898,0.154
	c0.104-0.523,0.221-1.489,0.351-2.898c0.134-1.415,0.25-3.099,0.354-5.059c0.104-1.96,0.22-4.089,0.352-6.393
	c0.13-2.3,0.235-4.601,0.313-6.9c0.082-2.297,0.147-4.549,0.196-6.744c0.05-2.196,0.078-4.156,0.078-5.881
	c0-5.016-0.013-9.329-0.036-12.939c-0.03-3.604-0.091-6.298-0.197-8.076h1.254c3.188,3.451,6.6,7.151,10.232,11.1
	c3.632,3.945,7.241,7.838,10.82,11.682c3.58,3.841,6.981,7.476,10.195,10.898c3.216,3.425,6.022,6.343,8.43,8.746v-10.667
	c0-5.489-0.038-10.833-0.116-16.035c-0.08-5.201-0.251-10.103-0.51-14.699c1.041,0.26,1.932,0.389,2.662,0.389
	c0.629,0,1.468-0.129,2.511-0.389c-0.104,1.147-0.225,2.87-0.352,5.174c-0.132,2.299-0.264,4.756-0.392,7.373
	c-0.132,2.61-0.248,5.172-0.353,7.678c-0.107,2.512-0.157,4.523-0.157,6.041c0,1.305,0,2.876,0,4.706
	c0,1.778,0.011,3.633,0.037,5.564c0.027,1.935,0.052,3.882,0.079,5.842c0.026,1.96,0.052,3.792,0.076,5.491
	c0.028,1.698,0.041,3.174,0.041,4.432c0,1.147,0,2.01,0,2.585h-1.098C275.339,132.828,268.932,125.708,262.135,118.412z"/>
<path fill="#FFFFFF" d="M54.972,49.286V35.797c0-3.448,0.065-6.835,0.197-10.154c0.054-1.4,0.112-2.819,0.173-4.243
	c-0.996,0.324-2.116,0.506-3.369,0.526l-0.216,0.001c-1.331,0-2.53-0.212-3.589-0.607c0.062,1.45,0.121,2.896,0.177,4.322
	c0.13,3.319,0.197,6.706,0.197,10.154v13.489c0,3.449-0.067,6.846-0.197,10.195c-0.129,3.345-0.274,6.637-0.432,9.877
	c1.205-0.107,2.484-0.158,3.844-0.158c1.355,0,2.639,0.051,3.842,0.158c-0.155-3.24-0.302-6.532-0.43-9.877
	C55.037,56.132,54.972,52.735,54.972,49.286z"/>
<path fill="#FFFFFF" d="M58.105,11.047C57.859,7.679,55.27,0,51.748,0c-0.026,0-0.052,0-0.079,0.001
	c-3.563,0.115-6.547,7.854-6.3,11.246c0.244,3.346,2.03,5.863,6.388,5.863c0.06,0,0.121,0,0.182-0.001
	C56.618,17.035,58.352,14.44,58.105,11.047z"/>
<path fill="#FFFFFF" d="M49.793,105.202v13.488c0,3.447-0.069,6.845-0.197,10.189c-0.067,1.696-0.137,3.376-0.209,5.046
	c1.182-1.063,2.444-1.616,3.766-1.638h0.077c1.29,0,2.412,0.499,3.382,1.31c-0.067-1.561-0.132-3.132-0.192-4.718
	c-0.134-3.345-0.199-6.742-0.199-10.189v-13.488c0-3.451,0.065-6.838,0.199-10.157c0.127-3.319,0.273-6.703,0.429-10.15
	c-0.679,0.102-1.332,0.19-1.961,0.271c-0.625,0.08-1.253,0.118-1.88,0.118c-0.627,0-1.253-0.038-1.882-0.118
	c-0.627-0.08-1.279-0.169-1.96-0.271c0.158,3.447,0.299,6.831,0.432,10.15C49.724,98.364,49.793,101.751,49.793,105.202z"/>
<path fill="#FFFFFF" d="M59.45,148.251c-0.193-3.382-2.678-11.146-6.221-11.146c-0.013,0-0.026,0-0.04,0
	c-3.565,0.061-6.67,7.752-6.476,11.146c0.194,3.397,1.986,5.965,6.476,5.965C57.872,154.216,59.645,151.648,59.45,148.251z"/>
</svg>
